<svg viewBox="0 0 400 480" xmlns="http://www.w3.org/2000/svg">
  <!-- White circular background -->
  <circle cx="200" cy="150" r="140" fill="white"/>
  
  <!-- Gray border circle -->
  <circle cx="200" cy="150" r="135" fill="none" stroke="#D3D3D3" stroke-width="8"/>
  
  <!-- House roof -->
  <path d="M 140 50 L 200 10 L 260 50" fill="none" stroke="#233F6D" stroke-width="14" stroke-linecap="round" stroke-linejoin="round"/>
  <line x1="140" y1="50" x2="140" y2="70" stroke="#233F6D" stroke-width="14" stroke-linecap="round"/>
  <line x1="260" y1="50" x2="260" y2="70" stroke="#233F6D" stroke-width="14" stroke-linecap="round"/>
  
  <!-- Left heart curve (navy blue) -->
  <path d="M 140 120 Q 100 80 100 120 Q 100 200 200 280" fill="none" stroke="#233F6D" stroke-width="16" stroke-linecap="round"/>
  
  <!-- Right heart curve (green) -->
  <path d="M 260 120 Q 300 80 300 120 Q 300 200 200 280" fill="none" stroke="#5FB848" stroke-width="16" stroke-linecap="round"/>
  
  <!-- Left person (navy blue) -->
  <circle cx="165" cy="100" r="18" fill="#233F6D"/>
  <ellipse cx="165" cy="145" rx="25" ry="35" fill="#233F6D"/>
  
  <!-- Right person (green) -->
  <circle cx="235" cy="90" r="15" fill="#5FB848"/>
  <ellipse cx="235" cy="130" rx="22" ry="30" fill="#5FB848"/>
  
  <!-- Left house (navy blue) -->
  <rect x="155" y="260" width="28" height="32" fill="#233F6D" rx="2"/>
  <polygon points="155,260 169,242 183,260" fill="#233F6D"/>
  <rect x="161" y="272" width="7" height="10" fill="white"/>
  
  <!-- Right house (green) -->
  <rect x="217" y="260" width="28" height="32" fill="#5FB848" rx="2"/>
  <polygon points="217,260 231,242 245,260" fill="#5FB848"/>
  <rect x="223" y="272" width="7" height="10" fill="white"/>
  
  <!-- Text in WHITE -->
  <text x="200" y="360" font-family="Arial, sans-serif" font-size="52" font-weight="bold" fill="white" text-anchor="middle">Good</text>
  <text x="200" y="420" font-family="Arial, sans-serif" font-size="52" font-weight="bold" fill="white" text-anchor="middle">Neighbour</text>
</svg>
